<svg width="22" height="20" viewBox="0 0 22 20" fill="none" xmlns="http://www.w3.org/2000/svg">
<path d="M10.0818 1.12771C10.4292 0.322663 11.5707 0.322663 11.9181 1.12771L14.0982 6.1796C14.2453 6.52048 14.5691 6.75181 14.9393 6.78042L20.5299 7.21241C21.4269 7.28172 21.7833 8.40778 21.0896 8.98057L16.8852 12.4518C16.5886 12.6967 16.4588 13.0899 16.5511 13.4632L17.8451 18.6916C18.0579 19.5514 17.1303 20.2429 16.367 19.7935L11.5073 16.9326C11.1942 16.7482 10.8058 16.7482 10.4927 16.9326L5.63292 19.7935C4.86962 20.2429 3.9421 19.5514 4.15489 18.6916L5.44882 13.4632C5.54121 13.0899 5.41134 12.6967 5.11478 12.4518L0.910397 8.98057C0.216638 8.40778 0.573043 7.28172 1.47003 7.21241L7.06068 6.78042C7.43085 6.75181 7.7547 6.52048 7.9018 6.1796L10.0818 1.12771Z" fill="#04B90B"/>
</svg>
